solid 
   facet normal 0.000000e+00 0.000000e+00 1.000000e+00
      outer loop
         vertex 3.000000e+00 -2.900000e+01 2.500000e+01
         vertex 4.000000e+00 -2.800000e+01 2.500000e+01
         vertex -3.000000e+00 -2.900000e+01 2.500000e+01
      endloop
   endfacet
   facet normal 0.000000e+00 0.000000e+00 1.000000e+00
      outer loop
         vertex 4.000000e+00 -2.800000e+01 2.500000e+01
         vertex 4.000000e+00 -2.500000e+01 2.500000e+01
         vertex -3.000000e+00 -2.900000e+01 2.500000e+01
      endloop
   endfacet
   facet normal 0.000000e+00 0.000000e+00 1.000000e+00
      outer loop
         vertex -3.000000e+00 -2.900000e+01 2.500000e+01
         vertex 4.000000e+00 -2.500000e+01 2.500000e+01
         vertex -4.000000e+00 -2.800000e+01 2.500000e+01
      endloop
   endfacet
   facet normal 0.000000e+00 0.000000e+00 1.000000e+00
      outer loop
         vertex 2.500000e+01 -2.500000e+01 2.500000e+01
         vertex 2.000000e+01 -2.000000e+01 2.500000e+01
         vertex 4.000000e+00 -2.500000e+01 2.500000e+01
      endloop
   endfacet
   facet normal -0.000000e+00 0.000000e+00 1.000000e+00
      outer loop
         vertex 2.000000e+01 -2.000000e+01 2.500000e+01
         vertex -2.000000e+01 -2.000000e+01 2.500000e+01
         vertex 4.000000e+00 -2.500000e+01 2.500000e+01
      endloop
   endfacet
   facet normal 0.000000e+00 0.000000e+00 1.000000e+00
      outer loop
         vertex 2.000000e+01 -2.000000e+01 2.500000e+01
         vertex 2.500000e+01 -2.500000e+01 2.500000e+01
         vertex 2.000000e+01 2.000000e+01 2.500000e+01
      endloop
   endfacet
   facet normal 0.000000e+00 0.000000e+00 1.000000e+00
      outer loop
         vertex 2.500000e+01 -2.500000e+01 2.500000e+01
         vertex 2.500000e+01 2.500000e+01 2.500000e+01
         vertex 2.000000e+01 2.000000e+01 2.500000e+01
      endloop
   endfacet
   facet normal -0.000000e+00 0.000000e+00 1.000000e+00
      outer loop
         vertex 2.500000e+01 2.500000e+01 2.500000e+01
         vertex -2.500000e+01 2.500000e+01 2.500000e+01
         vertex 2.000000e+01 2.000000e+01 2.500000e+01
      endloop
   endfacet
   facet normal 0.000000e+00 0.000000e+00 1.000000e+00
      outer loop
         vertex 2.000000e+01 2.000000e+01 2.500000e+01
         vertex -2.500000e+01 2.500000e+01 2.500000e+01
         vertex -2.000000e+01 2.000000e+01 2.500000e+01
      endloop
   endfacet
   facet normal 0.000000e+00 0.000000e+00 1.000000e+00
      outer loop
         vertex -2.500000e+01 2.500000e+01 2.500000e+01
         vertex -2.500000e+01 -2.500000e+01 2.500000e+01
         vertex -2.000000e+01 2.000000e+01 2.500000e+01
      endloop
   endfacet
   facet normal 0.000000e+00 0.000000e+00 1.000000e+00
      outer loop
         vertex -2.000000e+01 2.000000e+01 2.500000e+01
         vertex -2.500000e+01 -2.500000e+01 2.500000e+01
         vertex -2.000000e+01 -2.000000e+01 2.500000e+01
      endloop
   endfacet
   facet normal 0.000000e+00 0.000000e+00 1.000000e+00
      outer loop
         vertex -2.500000e+01 -2.500000e+01 2.500000e+01
         vertex -4.000000e+00 -2.500000e+01 2.500000e+01
         vertex -2.000000e+01 -2.000000e+01 2.500000e+01
      endloop
   endfacet
   facet normal 0.000000e+00 -0.000000e+00 1.000000e+00
      outer loop
         vertex -2.000000e+01 -2.000000e+01 2.500000e+01
         vertex -4.000000e+00 -2.500000e+01 2.500000e+01
         vertex 4.000000e+00 -2.500000e+01 2.500000e+01
      endloop
   endfacet
   facet normal 0.000000e+00 0.000000e+00 1.000000e+00
      outer loop
         vertex -4.000000e+00 -2.500000e+01 2.500000e+01
         vertex -4.000000e+00 -2.800000e+01 2.500000e+01
         vertex 4.000000e+00 -2.500000e+01 2.500000e+01
      endloop
   endfacet
   facet normal -1.000000e+00 0.000000e+00 0.000000e+00
      outer loop
         vertex 2.000000e+01 -2.000000e+01 5.000000e+00
         vertex 2.000000e+01 -2.000000e+01 2.500000e+01
         vertex 2.000000e+01 2.000000e+01 2.500000e+01
      endloop
   endfacet
   facet normal -1.000000e+00 0.000000e+00 0.000000e+00
      outer loop
         vertex 2.000000e+01 2.000000e+01 5.000000e+00
         vertex 2.000000e+01 -2.000000e+01 5.000000e+00
         vertex 2.000000e+01 2.000000e+01 2.500000e+01
      endloop
   endfacet
   facet normal -0.000000e+00 1.000000e+00 0.000000e+00
      outer loop
         vertex -2.000000e+01 -2.000000e+01 5.000000e+00
         vertex -2.000000e+01 -2.000000e+01 2.500000e+01
         vertex 2.000000e+01 -2.000000e+01 2.500000e+01
      endloop
   endfacet
   facet normal 0.000000e+00 1.000000e+00 0.000000e+00
      outer loop
         vertex 2.000000e+01 -2.000000e+01 5.000000e+00
         vertex -2.000000e+01 -2.000000e+01 5.000000e+00
         vertex 2.000000e+01 -2.000000e+01 2.500000e+01
      endloop
   endfacet
   facet normal 1.000000e+00 0.000000e+00 0.000000e+00
      outer loop
         vertex -2.000000e+01 2.000000e+01 5.000000e+00
         vertex -2.000000e+01 2.000000e+01 2.500000e+01
         vertex -2.000000e+01 -2.000000e+01 2.500000e+01
      endloop
   endfacet
   facet normal 1.000000e+00 0.000000e+00 0.000000e+00
      outer loop
         vertex -2.000000e+01 -2.000000e+01 5.000000e+00
         vertex -2.000000e+01 2.000000e+01 5.000000e+00
         vertex -2.000000e+01 -2.000000e+01 2.500000e+01
      endloop
   endfacet
   facet normal -0.000000e+00 -1.000000e+00 -0.000000e+00
      outer loop
         vertex 2.000000e+01 2.000000e+01 5.000000e+00
         vertex 2.000000e+01 2.000000e+01 2.500000e+01
         vertex -2.000000e+01 2.000000e+01 2.500000e+01
      endloop
   endfacet
   facet normal 0.000000e+00 -1.000000e+00 0.000000e+00
      outer loop
         vertex -2.000000e+01 2.000000e+01 5.000000e+00
         vertex 2.000000e+01 2.000000e+01 5.000000e+00
         vertex -2.000000e+01 2.000000e+01 2.500000e+01
      endloop
   endfacet
   facet normal 1.000000e+00 0.000000e+00 0.000000e+00
      outer loop
         vertex 4.000000e+00 -2.800000e+01 2.500000e+01
         vertex 4.000000e+00 -2.800000e+01 0.000000e+00
         vertex 4.000000e+00 -2.500000e+01 0.000000e+00
      endloop
   endfacet
   facet normal 1.000000e+00 0.000000e+00 -0.000000e+00
      outer loop
         vertex 4.000000e+00 -2.800000e+01 2.500000e+01
         vertex 4.000000e+00 -2.500000e+01 0.000000e+00
         vertex 4.000000e+00 -2.500000e+01 2.500000e+01
      endloop
   endfacet
   facet normal 0.000000e+00 -1.000000e+00 0.000000e+00
      outer loop
         vertex 4.000000e+00 -2.500000e+01 2.500000e+01
         vertex 4.000000e+00 -2.500000e+01 0.000000e+00
         vertex 2.500000e+01 -2.500000e+01 0.000000e+00
      endloop
   endfacet
   facet normal 0.000000e+00 -1.000000e+00 0.000000e+00
      outer loop
         vertex 4.000000e+00 -2.500000e+01 2.500000e+01
         vertex 2.500000e+01 -2.500000e+01 0.000000e+00
         vertex 2.500000e+01 -2.500000e+01 2.500000e+01
      endloop
   endfacet
   facet normal 1.000000e+00 0.000000e+00 0.000000e+00
      outer loop
         vertex 2.500000e+01 -2.500000e+01 2.500000e+01
         vertex 2.500000e+01 -2.500000e+01 0.000000e+00
         vertex 2.500000e+01 2.500000e+01 0.000000e+00
      endloop
   endfacet
   facet normal 1.000000e+00 0.000000e+00 -0.000000e+00
      outer loop
         vertex 2.500000e+01 -2.500000e+01 2.500000e+01
         vertex 2.500000e+01 2.500000e+01 0.000000e+00
         vertex 2.500000e+01 2.500000e+01 2.500000e+01
      endloop
   endfacet
   facet normal 0.000000e+00 1.000000e+00 -0.000000e+00
      outer loop
         vertex 2.500000e+01 2.500000e+01 2.500000e+01
         vertex 2.500000e+01 2.500000e+01 0.000000e+00
         vertex -2.500000e+01 2.500000e+01 0.000000e+00
      endloop
   endfacet
   facet normal 0.000000e+00 1.000000e+00 0.000000e+00
      outer loop
         vertex 2.500000e+01 2.500000e+01 2.500000e+01
         vertex -2.500000e+01 2.500000e+01 0.000000e+00
         vertex -2.500000e+01 2.500000e+01 2.500000e+01
      endloop
   endfacet
   facet normal -1.000000e+00 0.000000e+00 0.000000e+00
      outer loop
         vertex -2.500000e+01 2.500000e+01 2.500000e+01
         vertex -2.500000e+01 2.500000e+01 0.000000e+00
         vertex -2.500000e+01 -2.500000e+01 0.000000e+00
      endloop
   endfacet
   facet normal -1.000000e+00 0.000000e+00 0.000000e+00
      outer loop
         vertex -2.500000e+01 2.500000e+01 2.500000e+01
         vertex -2.500000e+01 -2.500000e+01 0.000000e+00
         vertex -2.500000e+01 -2.500000e+01 2.500000e+01
      endloop
   endfacet
   facet normal 0.000000e+00 -1.000000e+00 0.000000e+00
      outer loop
         vertex -2.500000e+01 -2.500000e+01 2.500000e+01
         vertex -2.500000e+01 -2.500000e+01 0.000000e+00
         vertex -4.000000e+00 -2.500000e+01 0.000000e+00
      endloop
   endfacet
   facet normal 0.000000e+00 -1.000000e+00 0.000000e+00
      outer loop
         vertex -2.500000e+01 -2.500000e+01 2.500000e+01
         vertex -4.000000e+00 -2.500000e+01 0.000000e+00
         vertex -4.000000e+00 -2.500000e+01 2.500000e+01
      endloop
   endfacet
   facet normal -1.000000e+00 0.000000e+00 0.000000e+00
      outer loop
         vertex -4.000000e+00 -2.500000e+01 2.500000e+01
         vertex -4.000000e+00 -2.500000e+01 0.000000e+00
         vertex -4.000000e+00 -2.800000e+01 0.000000e+00
      endloop
   endfacet
   facet normal -1.000000e+00 0.000000e+00 0.000000e+00
      outer loop
         vertex -4.000000e+00 -2.500000e+01 2.500000e+01
         vertex -4.000000e+00 -2.800000e+01 0.000000e+00
         vertex -4.000000e+00 -2.800000e+01 2.500000e+01
      endloop
   endfacet
   facet normal -7.071068e-01 -7.071068e-01 0.000000e+00
      outer loop
         vertex -4.000000e+00 -2.800000e+01 2.500000e+01
         vertex -4.000000e+00 -2.800000e+01 0.000000e+00
         vertex -3.000000e+00 -2.900000e+01 0.000000e+00
      endloop
   endfacet
   facet normal -7.071068e-01 -7.071068e-01 0.000000e+00
      outer loop
         vertex -4.000000e+00 -2.800000e+01 2.500000e+01
         vertex -3.000000e+00 -2.900000e+01 0.000000e+00
         vertex -3.000000e+00 -2.900000e+01 2.500000e+01
      endloop
   endfacet
   facet normal 0.000000e+00 -1.000000e+00 0.000000e+00
      outer loop
         vertex -3.000000e+00 -2.900000e+01 2.500000e+01
         vertex -3.000000e+00 -2.900000e+01 0.000000e+00
         vertex 3.000000e+00 -2.900000e+01 0.000000e+00
      endloop
   endfacet
   facet normal 0.000000e+00 -1.000000e+00 0.000000e+00
      outer loop
         vertex -3.000000e+00 -2.900000e+01 2.500000e+01
         vertex 3.000000e+00 -2.900000e+01 0.000000e+00
         vertex 3.000000e+00 -2.900000e+01 2.500000e+01
      endloop
   endfacet
   facet normal 7.071068e-01 -7.071068e-01 0.000000e+00
      outer loop
         vertex 3.000000e+00 -2.900000e+01 2.500000e+01
         vertex 3.000000e+00 -2.900000e+01 0.000000e+00
         vertex 4.000000e+00 -2.800000e+01 0.000000e+00
      endloop
   endfacet
   facet normal 7.071068e-01 -7.071068e-01 0.000000e+00
      outer loop
         vertex 3.000000e+00 -2.900000e+01 2.500000e+01
         vertex 4.000000e+00 -2.800000e+01 0.000000e+00
         vertex 4.000000e+00 -2.800000e+01 2.500000e+01
      endloop
   endfacet
   facet normal 0.000000e+00 0.000000e+00 1.000000e+00
      outer loop
         vertex 2.000000e+01 -2.000000e+01 5.000000e+00
         vertex 2.000000e+01 2.000000e+01 5.000000e+00
         vertex -2.000000e+01 2.000000e+01 5.000000e+00
      endloop
   endfacet
   facet normal 0.000000e+00 0.000000e+00 1.000000e+00
      outer loop
         vertex 2.000000e+01 -2.000000e+01 5.000000e+00
         vertex -2.000000e+01 2.000000e+01 5.000000e+00
         vertex -2.000000e+01 -2.000000e+01 5.000000e+00
      endloop
   endfacet
   facet normal 0.000000e+00 0.000000e+00 -1.000000e+00
      outer loop
         vertex 4.000000e+00 -2.800000e+01 0.000000e+00
         vertex 3.000000e+00 -2.900000e+01 0.000000e+00
         vertex 4.000000e+00 -2.500000e+01 0.000000e+00
      endloop
   endfacet
   facet normal 0.000000e+00 0.000000e+00 -1.000000e+00
      outer loop
         vertex 3.000000e+00 -2.900000e+01 0.000000e+00
         vertex -3.000000e+00 -2.900000e+01 0.000000e+00
         vertex 4.000000e+00 -2.500000e+01 0.000000e+00
      endloop
   endfacet
   facet normal 0.000000e+00 0.000000e+00 -1.000000e+00
      outer loop
         vertex -3.000000e+00 -2.900000e+01 0.000000e+00
         vertex -4.000000e+00 -2.800000e+01 0.000000e+00
         vertex 4.000000e+00 -2.500000e+01 0.000000e+00
      endloop
   endfacet
   facet normal 0.000000e+00 0.000000e+00 -1.000000e+00
      outer loop
         vertex -4.000000e+00 -2.800000e+01 0.000000e+00
         vertex -4.000000e+00 -2.500000e+01 0.000000e+00
         vertex 4.000000e+00 -2.500000e+01 0.000000e+00
      endloop
   endfacet
   facet normal 0.000000e+00 0.000000e+00 -1.000000e+00
      outer loop
         vertex -2.500000e+01 -2.500000e+01 0.000000e+00
         vertex -2.500000e+01 2.500000e+01 0.000000e+00
         vertex -4.000000e+00 -2.500000e+01 0.000000e+00
      endloop
   endfacet
   facet normal -0.000000e+00 0.000000e+00 -1.000000e+00
      outer loop
         vertex -2.500000e+01 2.500000e+01 0.000000e+00
         vertex 2.500000e+01 2.500000e+01 0.000000e+00
         vertex -4.000000e+00 -2.500000e+01 0.000000e+00
      endloop
   endfacet
   facet normal 0.000000e+00 0.000000e+00 -1.000000e+00
      outer loop
         vertex -4.000000e+00 -2.500000e+01 0.000000e+00
         vertex 2.500000e+01 2.500000e+01 0.000000e+00
         vertex 4.000000e+00 -2.500000e+01 0.000000e+00
      endloop
   endfacet
   facet normal 0.000000e+00 0.000000e+00 -1.000000e+00
      outer loop
         vertex 2.500000e+01 2.500000e+01 0.000000e+00
         vertex 2.500000e+01 -2.500000e+01 0.000000e+00
         vertex 4.000000e+00 -2.500000e+01 0.000000e+00
      endloop
   endfacet
endsolid
